<?xml version="1.0" standalone="no"?>
<!DOCTYPE svg PUBLIC "-//W3C//DTD SVG 20010904//EN"
 "http://www.w3.org/TR/2001/REC-SVG-20010904/DTD/svg10.dtd">
<svg version="1.0" xmlns="http://www.w3.org/2000/svg"
 width="360.000000pt" height="360.000000pt" viewBox="0 0 360.000000 360.000000"
 preserveAspectRatio="xMidYMid meet">
<metadata>
Created by potrace 1.11, written by Peter Selinger 2001-2013
</metadata>
<g transform="translate(0.000000,360.000000) scale(0.100000,-0.100000)"
fill="#000000" stroke="none">
<path d="M300 2537 l203 -202 481 0 481 0 2 -150 2 -150 -330 0 c-181 0 -329
-1 -329 -3 0 -3 88 -92 195 -200 l195 -195 133 -1 132 -1 1 -204 1 -203 172
-172 171 -171 0 116 0 115 -47 0 -48 -1 -3 47 -3 48 50 0 c39 0 51 4 51 15 0
17 -1 17 -85 17 l-60 0 0 46 0 47 65 2 c85 2 80 1 80 16 0 9 -27 13 -107 12
l-108 0 -3 48 -2 47 110 0 110 0 0 353 0 353 -97 -1 c-54 -1 -104 1 -110 3 -8
2 -13 22 -13 48 l0 44 110 0 c93 0 110 2 110 16 0 12 -12 15 -70 12 -42 -2
-70 1 -71 7 -6 52 -4 77 5 82 6 4 39 6 74 5 55 -3 62 -1 62 16 0 17 -6 19 -50
17 l-50 -3 0 49 0 49 50 0 50 0 0 113 0 113 -856 2 -856 2 202 -203z"/>
<path d="M1890 2623 l0 -113 49 0 c46 0 49 -2 53 -29 8 -51 -4 -66 -53 -66
-32 0 -45 -4 -47 -16 -2 -14 8 -17 64 -18 37 -1 70 -4 73 -7 3 -3 6 -23 6 -45
1 -38 0 -39 -35 -40 -19 -1 -52 0 -72 1 -29 1 -38 -2 -38 -14 0 -14 16 -16
109 -16 l109 0 -2 -47 -1 -48 -107 0 -108 1 0 -353 0 -353 111 0 110 0 -3 -47
-3 -48 -104 0 c-75 0 -106 -4 -108 -12 -5 -15 -1 -15 80 -15 61 0 59 3 61 -60
l1 -33 -73 0 c-62 0 -72 -2 -72 -17 0 -15 9 -18 49 -18 54 0 60 -7 53 -66 -4
-30 -5 -31 -53 -29 l-49 2 0 -116 0 -115 61 59 c33 33 110 110 171 172 l111
112 0 204 -1 204 134 0 134 0 551 551 551 552 -856 -2 -856 -1 0 -114z m870
-292 c0 -2 -66 -70 -147 -150 l-148 -147 -115 1 -115 0 -2 145 c-1 80 2 147 7
150 10 6 520 7 520 1z"/>
</g>
</svg>
